<?xml version="1.0" encoding="UTF-8"?>
<svg id="Layer_1" xmlns="http://www.w3.org/2000/svg" version="1.1" viewBox="0 0 708.7 712.2">
  <!-- Generator: Adobe Illustrator 30.2.1, SVG Export Plug-In . SVG Version: 2.1.1 Build 1)  -->
  <defs>
    <style>
      .st0 {
        fill: #f8e5f2;
      }

      .st1 {
        fill: #b55b89;
        opacity: .5;
      }
    </style>
  </defs>
  <g id="Rn1RIA">
    <g>
      <path class="st0" d="M91.5,714.9H-7.4V-5.1h720v720h-100c2.8-4.6-21.8-2.6-24-3l-.3-4.8c0-.7-.7-10.8-2.4-8.5v-1.8c.5-.5.8-1.1.8-1.6,0-.9-.8-2.4-1.9-1.6,0-1.5,0-3.2-.3-4.6-.7-3.2-.8-6.9-3-9.3,0-.5-.2-1.1,0-1.7.3-1.2-4-15.5-4.7-12.4-32.6-90.9-129.9-169.4-229.1-168.6-18.4.1-40.2,4.4-57.9,10.2-44.5,14.5-82.8,40.9-114.3,75.4-24.2,26.5-48,65.7-56.1,99.9-.9-.5-1.4.4-1.6,1-.3.9,0,1.8,0,2.4v1.6c-2.2,3.2-3.1,7.5-3,11.4s-.9,3.9-.4,5.6c-2.5-1.6-1,5.7-1.8,7.1l-19.9.2c-1.4,0-1.2,2.2-1,2.9l-.2.2ZM455.4,412.7c23.1-28.2,33.2-64.2,29.1-100.8-6.7-60.7-53.7-108.9-114.2-117.8-45.4-6.7-91.5,10-121.4,44.9-5.8,6.7-10.5,12.7-14.9,20.6-21.4,38.1-24.9,83.2-5.3,125.6,15.5,33.4,46.9,62.1,86.2,72.5,52.1,13.8,106-2.8,140.5-45h0Z"/>
      <path class="st1" d="M576.7,665.8c-1-2.7,3.2,15.8,4.7,12.4,0,.5,0,1.1,0,1.7-1.6-.5,1.5,11.7,3,9.3.3,1.5.2,3.1.3,4.6s-.8,3.2,1.1,3.2c0,.6,0,1.2,0,1.8-.4,2.9-.6,7.2,2.4,8.5l.3,4.8c0,1,0,2,.2,3H112.4c1.4-3.5,3-6.5,1.9-10.3s.4-3.9.4-5.6c.5,4.8,5.3-13.8,2.9-11.4v-1.6c1,.6,1.6-.3,1.8-.8.4-1-.3-1.9-.2-2.6,8.1-34.2,31.9-73.5,56.1-99.9,31.5-34.5,69.8-60.9,114.3-75.4,17.7-5.8,39.5-10.1,57.9-10.2,99.1-.8,196.4,77.8,229.1,168.6h0Z"/>
      <path class="st0" d="M612.6,714.9h-23.8c-.2-1,0-2-.2-3,2.2.4,26.8-1.6,24,3Z"/>
      <path class="st0" d="M114.3,704.7c1.1,3.7-.5,6.7-1.9,10.3h-20.8c0-.7-.4-2.9,1-2.9l19.9-.2c.7-1.4-.8-8.7,1.8-7.1h0Z"/>
      <path class="st1" d="M455.4,412.7c-34.5,42.2-88.4,58.8-140.5,45-39.3-10.4-70.7-39.1-86.2-72.5-19.7-42.4-16.2-87.5,5.3-125.6,4.5-8,9.1-13.9,14.9-20.6,29.9-34.9,76-51.6,121.4-44.9,60.5,8.9,107.5,57.1,114.2,117.8,4.1,36.6-6,72.5-29.1,100.8Z"/>
      <path class="st0" d="M581.4,678.1c-1.5,3.4-5.7-15.1-4.7-12.4.8-3.1,5,11.1,4.7,12.4Z"/>
      <path class="st0" d="M114.7,699.1c0-3.9.8-8.1,2.9-11.4,2.4-2.5-2.4,16.1-2.9,11.4Z"/>
      <path class="st0" d="M584.4,689.1c-1.5,2.4-4.6-9.8-3-9.3,2.2,2.5,2.3,6.1,3,9.3Z"/>
      <path class="st0" d="M588.3,707.2c-3-1.3-2.8-5.6-2.4-8.5,1.7-2.3,2.4,7.8,2.4,8.5Z"/>
      <path class="st0" d="M119.3,682.7c-.2.7.6,1.6.2,2.6s-.9,1.4-1.8.8c0-.7-.2-1.5,0-2.4s.7-1.5,1.6-1h0Z"/>
      <path class="st0" d="M585.8,696.9c-1.9,0-1-2-1.1-3.2,1-.9,1.9.7,1.9,1.6s-.2,1.1-.8,1.6h0Z"/>
    </g>
  </g>
</svg>