<?xml version="1.0" encoding="UTF-8"?>
<svg id="Layer_1" xmlns="http://www.w3.org/2000/svg" xmlns:xlink="http://www.w3.org/1999/xlink" version="1.1" viewBox="0 0 80 80">
  <!-- Generator: Adobe Illustrator 30.2.1, SVG Export Plug-In . SVG Version: 2.1.1 Build 1)  -->
  <defs>
    <style>
      .st0 {
        fill: #c351fe;
      }

      .st1 {
        fill: url(#linear-gradient);
      }

      .st2 {
        fill: none;
        stroke: #c581aa;
        stroke-linecap: round;
        stroke-linejoin: round;
        stroke-width: 2px;
      }

      .st3 {
        fill: #ee74fe;
      }

      .st4 {
        fill: #fefefe;
      }

      .st5 {
        fill: #fff;
        isolation: isolate;
        opacity: .9;
      }
    </style>
    <linearGradient id="linear-gradient" x1="0" y1="79.9" x2="80" y2="-.1" gradientTransform="translate(0 79.9) scale(1 -1)" gradientUnits="userSpaceOnUse">
      <stop offset="0" stop-color="#e391ab"/>
      <stop offset="1" stop-color="#9d81aa"/>
    </linearGradient>
  </defs>
  <rect class="st1" y="0" width="80" height="80" rx="20" ry="20"/>
  <path class="st5" d="M43.6,22c-1.9-2.2-5.4-2.2-7.3,0-4.7,5.5-12.4,15.7-12.4,24s7.2,16,16,16,16-7,16-16-7.6-18.5-12.4-24Z"/>
  <path class="st2" d="M34,55.8c-3.7-2.4-5.8-5.9-5.6-9.5"/>
  <path class="st0" d="M-146.7,183.8c-1,6.6,0,13.2,2.3,19.2s-.1,2.7-1.4,3.3-2.6-.1-3.2-1.4c-1.7-4-2.4-8.2-3-12.5v-6.1c0,0,.4-2.3.4-2.3.4-.2.9-.2,1.5-.2h3.5Z"/>
  <path class="st3" d="M-146.7,183.8h-3.5c-.5,0-1,0-1.5.1,2.4-20.2,19.3-35.9,39.6-37s22.9,3.4,31.5,11.5c.2-.2.1-.5.1-.8,0-1.5,1-2.6,2.4-2.6s2.6,1,2.6,2.5v7c0,1.4-1.1,2.6-2.5,2.6h-7.1c-1.5,0-2.6-1.4-2.4-2.7s1.4-2.3,3.3-2.3c-7.3-6.9-17.1-10.5-27.1-10.1-18.1.8-32.7,14.3-35.5,31.9Z"/>
  <path class="st3" d="M-88.8,185.8c-.3.3-5.8-.2-5.2.3-.3-.3-.4-.6-.7-1l-14.8-21.2-13.7,19.4h-4.8c-.3,0-.6-.3-.8-.2.1-.4.3-.6.5-1l16.7-24c.5-.8,1.3-1.1,2.1-1.1s1.5.4,2,1.1l16.5,23.7c.9,1.3,1.4,2.6,2,4Z"/>
  <path class="st0" d="M-112,187c0,1.3,1.3,2.4,2.4,2.5s2.5-1,2.6-2.5h4.9c0,3.3-1.9,5.9-4.9,7v2.9s2.5,0,2.5,0c1.4,0,2.5,1.2,2.5,2.6s-1.1,2.4-2.5,2.4h-2.5s0,2.5,0,2.5c0,1.4-1.2,2.5-2.6,2.5s-2.4-1.1-2.4-2.5v-2.5s-2.5,0-2.5,0c-1.4,0-2.5-1.2-2.5-2.6s1.1-2.4,2.5-2.4h2.5s0-2.9,0-2.9c-2.9-1.1-4.9-3.8-4.9-6.9h4.9Z"/>
  <path class="st3" d="M-102,187.1h-4.9c-.1-1.5-1.1-2.6-2.5-2.6s-2.6,1-2.6,2.5h-4.9c0-4.2,3.4-7.5,7.5-7.5s7.5,3.5,7.4,7.6Z"/>
  <path class="st4" d="M-106.9,187c-.2,1.5-1.2,2.5-2.6,2.5s-2.5-1.1-2.4-2.5,1.4-2.5,2.6-2.5,2.4,1.2,2.5,2.5Z"/>
</svg>